<svg width="190" height="141" viewBox="0 0 190 141" fill="none" xmlns="http://www.w3.org/2000/svg">
<path d="M67.3186 117.82H62.6524C62.5672 117.217 62.3931 116.68 62.1304 116.212C61.8676 115.736 61.5302 115.331 61.1183 114.997C60.7064 114.663 60.2305 114.408 59.6907 114.23C59.1581 114.053 58.5792 113.964 57.9542 113.964C56.825 113.964 55.8413 114.244 55.0032 114.805C54.1652 115.359 53.5153 116.169 53.0537 117.234C52.592 118.293 52.3612 119.578 52.3612 121.091C52.3612 122.646 52.592 123.953 53.0537 125.011C53.5224 126.07 54.1758 126.869 55.0139 127.408C55.852 127.948 56.8214 128.218 57.9223 128.218C58.5402 128.218 59.1119 128.136 59.6375 127.973C60.1701 127.81 60.6424 127.572 61.0544 127.259C61.4663 126.94 61.8072 126.553 62.0771 126.098C62.3541 125.643 62.5458 125.125 62.6524 124.543L67.3186 124.564C67.1978 125.565 66.896 126.531 66.413 127.462C65.9372 128.385 65.2944 129.212 64.4848 129.944C63.6822 130.668 62.7234 131.244 61.6083 131.67C60.5004 132.089 59.2468 132.298 57.8477 132.298C55.9017 132.298 54.1616 131.858 52.6275 130.977C51.1005 130.097 49.8931 128.822 49.0054 127.153C48.1247 125.484 47.6843 123.463 47.6843 121.091C47.6843 118.712 48.1318 116.688 49.0267 115.018C49.9216 113.349 51.136 112.078 52.6701 111.205C54.2042 110.324 55.9301 109.884 57.8477 109.884C59.1119 109.884 60.2838 110.061 61.3633 110.416C62.45 110.771 63.4123 111.29 64.2504 111.972C65.0885 112.646 65.7703 113.474 66.2958 114.454C66.8285 115.434 67.1694 116.556 67.3186 117.82ZM93.6762 121.091C93.6762 123.47 93.2252 125.494 92.3232 127.163C91.4283 128.832 90.2067 130.107 88.6584 130.988C87.1172 131.862 85.3843 132.298 83.4596 132.298C81.5206 132.298 79.7806 131.858 78.2394 130.977C76.6982 130.097 75.4802 128.822 74.5853 127.153C73.6904 125.484 73.2429 123.463 73.2429 121.091C73.2429 118.712 73.6904 116.688 74.5853 115.018C75.4802 113.349 76.6982 112.078 78.2394 111.205C79.7806 110.324 81.5206 109.884 83.4596 109.884C85.3843 109.884 87.1172 110.324 88.6584 111.205C90.2067 112.078 91.4283 113.349 92.3232 115.018C93.2252 116.688 93.6762 118.712 93.6762 121.091ZM88.9993 121.091C88.9993 119.55 88.7685 118.25 88.3069 117.192C87.8523 116.134 87.2096 115.331 86.3786 114.784C85.5476 114.237 84.5746 113.964 83.4596 113.964C82.3445 113.964 81.3715 114.237 80.5405 114.784C79.7096 115.331 79.0632 116.134 78.6016 117.192C78.1471 118.25 77.9198 119.55 77.9198 121.091C77.9198 122.632 78.1471 123.932 78.6016 124.99C79.0632 126.048 79.7096 126.851 80.5405 127.398C81.3715 127.945 82.3445 128.218 83.4596 128.218C84.5746 128.218 85.5476 127.945 86.3786 127.398C87.2096 126.851 87.8523 126.048 88.3069 124.99C88.7685 123.932 88.9993 122.632 88.9993 121.091ZM100.093 132V110.182H108.701C110.349 110.182 111.755 110.477 112.92 111.066C114.092 111.648 114.983 112.476 115.594 113.548C116.212 114.614 116.521 115.867 116.521 117.309C116.521 118.758 116.208 120.004 115.583 121.048C114.958 122.085 114.053 122.881 112.867 123.435C111.688 123.989 110.26 124.266 108.584 124.266H102.821V120.558H107.838C108.719 120.558 109.451 120.437 110.033 120.196C110.615 119.955 111.049 119.592 111.333 119.109C111.624 118.626 111.769 118.026 111.769 117.309C111.769 116.585 111.624 115.974 111.333 115.477C111.049 114.979 110.612 114.603 110.022 114.347C109.44 114.085 108.705 113.953 107.817 113.953H104.706V132H100.093ZM111.876 122.071L117.299 132H112.206L106.901 122.071H111.876ZM126.541 132H121.598L129.13 110.182H135.075L142.596 132H137.653L132.188 115.168H132.017L126.541 132ZM126.232 123.424H137.909V127.025H126.232V123.424Z" fill="black"/>
<path d="M120 30.5C127.139 30.5 134.677 31.6558 140.409 34.5615C146.119 37.4557 150 42.0572 150 49C150 56.0135 146.044 64.1493 140.264 70.5498C134.479 76.9541 126.979 81.5 120 81.5C105.917 81.5 94.5 70.0833 94.5 56C94.5 41.9167 105.917 30.5 120 30.5Z" fill="white" stroke="black"/>
<path d="M66.5 30.5C59.361 30.5 51.8235 31.6558 46.0908 34.5615C40.3812 37.4557 36.5 42.0572 36.5 49C36.5 56.0135 40.4556 64.1493 46.2363 70.5498C52.0206 76.9541 59.5213 81.5 66.5 81.5C80.5833 81.5 92 70.0833 92 56C92 41.9167 80.5833 30.5 66.5 30.5Z" fill="white" stroke="black"/>
<path d="M137.878 47.0111C138.961 56.0602 137.241 63.4828 130.513 69.2916C123.426 75.4104 112.467 75.8922 109.518 67.7888C106.568 59.6854 110.732 50.7307 118.818 47.7877C126.903 44.8448 136.795 37.9621 137.878 47.0111Z" fill="black" fill-opacity="0.86"/>
<ellipse cx="115.5" cy="70" rx="2.5" ry="1" fill="url(#paint0_linear_452_18514)"/>
<path d="M137.002 55.9996C136.5 60 130.46 64.4136 131.002 62.999C131.126 62.6767 135.149 53.9314 136.377 52.6009C137.171 51.7395 137.268 53.8828 137.002 55.9996Z" fill="url(#paint1_linear_452_18514)" fill-opacity="0.8"/>
<path d="M51.9642 47.0111C50.8812 56.0602 52.6009 63.4828 59.3292 69.2916C66.4166 75.4104 77.3752 75.8922 80.3245 67.7888C83.2739 59.6854 79.1102 50.7307 71.0246 47.7877C62.939 44.8448 53.0471 37.9621 51.9642 47.0111Z" fill="black" fill-opacity="0.86"/>
<path d="M96.4999 67.5C96.4999 67.5 87.5001 46.5 96 37C104.077 27.9732 113.652 23.1576 126 22C142 20.5 154.658 24.3482 168.999 16.5C172.943 14.342 174.887 13.3313 178.499 10.5C182.112 7.6687 189.999 0 189.999 0C189.999 0 188.5 16 184 22C179.5 28 172 34 172 34C152.5 46.5 138.026 42.6996 121.999 51.5C111.175 57.4441 96.4999 67.5 96.4999 67.5Z" fill="black"/>
<path d="M93.5001 67.5C93.5001 67.5 102.5 46.5 94 37C85.9234 27.9732 76.3481 23.1576 64.0001 22C48.0001 20.5 35.3415 24.3482 21.0001 16.5C17.0566 14.342 15.1124 13.3313 11.5001 10.5C7.88771 7.6687 6.10352e-05 0 6.10352e-05 0C6.10352e-05 0 1.5 14.5 6 20.5C10.5 26.5 19 34 19 34C38.5 46.5 51.9734 42.6996 68.0001 51.5C78.8249 57.4441 93.5001 67.5 93.5001 67.5Z" fill="black"/>
<path d="M99.0001 65H91.0001L90 66.25L92.5 68.5C93.4763 69.3787 95 71 95 71C95 71 96.5238 69.3787 97.5001 68.5C98.4764 67.6213 100 66.5 100 66.5L99.0001 65Z" fill="black" stroke="black"/>
<path d="M96.0008 93C96.0008 93 91.002 66.5 97.5021 56.8148C101.644 50.6429 108.484 43.7434 126.483 41.8148C141.767 40.1773 156.074 43.0619 169.785 35.1556C173.472 33.0293 176.37 30.1304 179.303 27.1973L179.5 27C182.5 23.5 187.5 13.5 187.5 13.5C187.5 13.5 184.961 29.1111 180.658 35.1556C176.356 41.2 169.785 44.5 169.785 44.5C159.362 50.763 134.285 48.7974 120.429 56.8148C110.08 62.8029 96.0008 93 96.0008 93Z" fill="url(#paint2_linear_452_18514)"/>
<path d="M95.9998 93C95.9998 93 99.7675 66.2633 91.4999 56.8148C84.4999 48.8148 74.805 43.1662 62.9999 42C47.7034 40.4889 33.9257 43.0619 20.2148 35.1556C16.5275 33.0293 13.6294 30.1304 10.6971 27.1973L10.4998 27C7.49981 23.5 2.99981 14 2.99981 14C2.99981 14 5.03915 29.1111 9.34129 35.1556C13.6434 41.2 20.2148 44.5 20.2148 44.5C30.6378 50.763 55.7147 48.7974 69.5706 56.8148C79.9195 62.8029 95.9998 93 95.9998 93Z" fill="url(#paint3_linear_452_18514)"/>
<path d="M135 41.5C136.12 41.6001 137.236 41.7125 138.354 41.8216C148.285 42.974 159.146 42.8025 168.524 37.938C168.919 37.7397 169.315 37.5334 169.71 37.3187C178.725 32.2507 184.087 23.2235 187.463 14.2106C187.844 13.1556 188.202 12.0839 188.5 11C188.015 12.0128 187.485 13.0027 186.944 13.9742C182.212 22.2831 176.328 30.276 168.29 34.6813C167.918 34.8797 167.548 35.0714 167.179 35.2568C158.478 39.7741 148.455 40.7827 138.364 41.2517C137.242 41.3225 136.12 41.4001 135 41.5Z" fill="#FFFBFB"/>
<path d="M55 41.5C53.8711 41.6001 52.7429 41.6988 51.6123 41.7852C41.5212 42.6978 30.6923 41.7632 21.3431 36.8733C20.9922 36.6944 20.641 36.5097 20.2897 36.3192C11.1391 31.1541 5.85218 21.8996 2.51639 12.7471C2.14449 11.6833 1.78965 10.5901 1.5 9.5C1.97728 10.5207 2.50489 11.5339 3.03748 12.5161C7.74115 20.9774 13.5839 29.2057 21.7103 33.6808C22.0431 33.8587 22.3751 34.032 22.7062 34.2009C31.485 38.7862 41.4617 40.4965 51.6141 41.2152C52.7417 41.3088 53.8711 41.4001 55 41.5Z" fill="#FFFBFB"/>
<ellipse cx="66.5" cy="70" rx="2.5" ry="1" fill="url(#paint4_linear_452_18514)"/>
<path d="M53.7721 56.3086C54.2745 60.3091 60.3147 64.7227 59.7724 63.308C59.6489 62.9858 55.6251 54.2405 54.3979 52.91C53.6034 52.0486 53.5063 54.1919 53.7721 56.3086Z" fill="url(#paint5_linear_452_18514)" fill-opacity="0.8"/>
<defs>
<linearGradient id="paint0_linear_452_18514" x1="114.625" y1="70.7245" x2="116.899" y2="68.8005" gradientUnits="userSpaceOnUse">
<stop offset="0.366788" stop-color="white"/>
<stop offset="1" stop-color="#999999"/>
</linearGradient>
<linearGradient id="paint1_linear_452_18514" x1="132.958" y1="59.2541" x2="138.885" y2="54.844" gradientUnits="userSpaceOnUse">
<stop offset="0.201906" stop-color="white"/>
<stop offset="0.436169" stop-color="#E6E6E6"/>
<stop offset="0.581735" stop-color="#CCCCCC"/>
<stop offset="1"/>
</linearGradient>
<linearGradient id="paint2_linear_452_18514" x1="165.503" y1="14" x2="115.662" y2="93" gradientUnits="userSpaceOnUse">
<stop offset="0.304794" stop-color="#9C6D0A"/>
<stop offset="0.653089" stop-color="#FBE156"/>
<stop offset="1" stop-color="#C99320"/>
</linearGradient>
<linearGradient id="paint3_linear_452_18514" x1="49.9281" y1="14" x2="49.9281" y2="93" gradientUnits="userSpaceOnUse">
<stop offset="0.292784" stop-color="#9C6D0A"/>
<stop offset="0.665099" stop-color="#FBE156"/>
<stop offset="1" stop-color="#C99320"/>
</linearGradient>
<linearGradient id="paint4_linear_452_18514" x1="65.6251" y1="70.7245" x2="67.8994" y2="68.8005" gradientUnits="userSpaceOnUse">
<stop offset="0.366788" stop-color="white"/>
<stop offset="1" stop-color="#999999"/>
</linearGradient>
<linearGradient id="paint5_linear_452_18514" x1="57.8169" y1="59.5632" x2="51.8893" y2="55.1531" gradientUnits="userSpaceOnUse">
<stop offset="0.201906" stop-color="white"/>
<stop offset="0.436169" stop-color="#E6E6E6"/>
<stop offset="0.581735" stop-color="#CCCCCC"/>
<stop offset="1"/>
</linearGradient>
</defs>
</svg>
