<svg width="288" height="51" viewBox="0 0 288 51" fill="none" xmlns="http://www.w3.org/2000/svg">
<path d="M3.52273 49.5908V3.04536H14.7727V40.4545H34.1364V49.5908H3.52273ZM55.7784 50.2499C52.1269 50.2499 48.9754 49.5302 46.3239 48.0908C43.6875 46.6363 41.6572 44.5681 40.233 41.8863C38.8239 39.1893 38.1193 35.9848 38.1193 32.2726C38.1193 28.6666 38.8314 25.5151 40.2557 22.8181C41.6799 20.106 43.6875 17.9999 46.2784 16.4999C48.8693 14.9848 51.9223 14.2272 55.4375 14.2272C57.9223 14.2272 60.1951 14.6135 62.2557 15.3863C64.3163 16.159 66.0966 17.3029 67.5966 18.8181C69.0966 20.3332 70.2633 22.2045 71.0966 24.4317C71.9299 26.6438 72.3466 29.1817 72.3466 32.0454V34.8181H42.0057V28.3635H62.0057C61.9905 27.1817 61.7102 26.1287 61.1648 25.2045C60.6193 24.2802 59.8693 23.5605 58.9148 23.0454C57.9754 22.5151 56.892 22.2499 55.6648 22.2499C54.4223 22.2499 53.3087 22.5302 52.3239 23.0908C51.339 23.6363 50.5587 24.3863 49.983 25.3408C49.4072 26.2802 49.1042 27.3484 49.0739 28.5454V35.1135C49.0739 36.5378 49.3542 37.7878 49.9148 38.8635C50.4754 39.9242 51.2708 40.7499 52.3011 41.3408C53.3314 41.9317 54.5587 42.2272 55.983 42.2272C56.9678 42.2272 57.8617 42.0908 58.6648 41.8181C59.4678 41.5454 60.1572 41.1439 60.733 40.6135C61.3087 40.0832 61.7405 39.4317 62.0284 38.659L72.233 38.9545C71.8087 41.2423 70.8769 43.2348 69.4375 44.9317C68.0133 46.6135 66.142 47.9242 63.8239 48.8635C61.5057 49.7878 58.8239 50.2499 55.7784 50.2499ZM97.2273 14.6817V22.8635H75.2045V14.6817H97.2273ZM79.8182 6.31809H90.9318V38.6135C90.9318 39.2954 91.0379 39.8484 91.25 40.2726C91.4773 40.6817 91.803 40.9772 92.2273 41.159C92.6515 41.3257 93.1591 41.409 93.75 41.409C94.1742 41.409 94.6212 41.3711 95.0909 41.2954C95.5758 41.2045 95.9394 41.1287 96.1818 41.0681L97.8636 49.0908C97.3333 49.2423 96.5833 49.4317 95.6136 49.659C94.6591 49.8863 93.5152 50.0302 92.1818 50.0908C89.5758 50.212 87.3409 49.909 85.4773 49.1817C83.6288 48.4393 82.2121 47.2878 81.2273 45.7272C80.2576 44.1666 79.7879 42.2045 79.8182 39.8408V6.31809Z" fill="white"/>
<path d="M100.523 3.04536H114.455L126.273 31.8635H126.818L138.636 3.04536H152.568V49.5908H141.614V20.9999H141.227L130.045 49.2954H123.045L111.864 20.8408H111.477V49.5908H100.523V3.04536ZM175.381 50.2499C171.714 50.2499 168.563 49.4999 165.926 47.9999C163.305 46.4848 161.282 44.3787 159.858 41.6817C158.449 38.9696 157.744 35.8257 157.744 32.2499C157.744 28.659 158.449 25.5151 159.858 22.8181C161.282 20.106 163.305 17.9999 165.926 16.4999C168.563 14.9848 171.714 14.2272 175.381 14.2272C179.047 14.2272 182.191 14.9848 184.812 16.4999C187.449 17.9999 189.472 20.106 190.881 22.8181C192.305 25.5151 193.017 28.659 193.017 32.2499C193.017 35.8257 192.305 38.9696 190.881 41.6817C189.472 44.3787 187.449 46.4848 184.812 47.9999C182.191 49.4999 179.047 50.2499 175.381 50.2499ZM175.449 41.8635C176.782 41.8635 177.911 41.4545 178.835 40.6363C179.759 39.8181 180.464 38.6817 180.949 37.2272C181.449 35.7726 181.699 34.0908 181.699 32.1817C181.699 30.2423 181.449 28.5454 180.949 27.0908C180.464 25.6363 179.759 24.4999 178.835 23.6817C177.911 22.8635 176.782 22.4545 175.449 22.4545C174.07 22.4545 172.903 22.8635 171.949 23.6817C171.009 24.4999 170.29 25.6363 169.79 27.0908C169.305 28.5454 169.062 30.2423 169.062 32.1817C169.062 34.0908 169.305 35.7726 169.79 37.2272C170.29 38.6817 171.009 39.8181 171.949 40.6363C172.903 41.4545 174.07 41.8635 175.449 41.8635ZM230.949 14.6817L218.972 49.5908H206.244L194.29 14.6817H205.994L212.426 38.7272H212.79L219.244 14.6817H230.949ZM234.71 49.5908V14.6817H245.824V49.5908H234.71ZM240.278 10.6135C238.718 10.6135 237.377 10.0984 236.256 9.06809C235.134 8.02264 234.574 6.76506 234.574 5.29536C234.574 3.84082 235.134 2.59839 236.256 1.56809C237.377 0.522636 238.718 -9.15527e-05 240.278 -9.15527e-05C241.854 -9.15527e-05 243.195 0.522636 244.301 1.56809C245.422 2.59839 245.983 3.84082 245.983 5.29536C245.983 6.76506 245.422 8.02264 244.301 9.06809C243.195 10.0984 241.854 10.6135 240.278 10.6135ZM268.716 50.2499C265.064 50.2499 261.913 49.5302 259.261 48.0908C256.625 46.6363 254.595 44.5681 253.17 41.8863C251.761 39.1893 251.057 35.9848 251.057 32.2726C251.057 28.6666 251.769 25.5151 253.193 22.8181C254.617 20.106 256.625 17.9999 259.216 16.4999C261.807 14.9848 264.86 14.2272 268.375 14.2272C270.86 14.2272 273.133 14.6135 275.193 15.3863C277.254 16.159 279.034 17.3029 280.534 18.8181C282.034 20.3332 283.201 22.2045 284.034 24.4317C284.867 26.6438 285.284 29.1817 285.284 32.0454V34.8181H254.943V28.3635H274.943C274.928 27.1817 274.648 26.1287 274.102 25.2045C273.557 24.2802 272.807 23.5605 271.852 23.0454C270.913 22.5151 269.83 22.2499 268.602 22.2499C267.36 22.2499 266.246 22.5302 265.261 23.0908C264.277 23.6363 263.496 24.3863 262.92 25.3408C262.345 26.2802 262.042 27.3484 262.011 28.5454V35.1135C262.011 36.5378 262.292 37.7878 262.852 38.8635C263.413 39.9242 264.208 40.7499 265.239 41.3408C266.269 41.9317 267.496 42.2272 268.92 42.2272C269.905 42.2272 270.799 42.0908 271.602 41.8181C272.405 41.5454 273.095 41.1439 273.67 40.6135C274.246 40.0832 274.678 39.4317 274.966 38.659L285.17 38.9545C284.746 41.2423 283.814 43.2348 282.375 44.9317C280.951 46.6135 279.08 47.9242 276.761 48.8635C274.443 49.7878 271.761 50.2499 268.716 50.2499Z" fill="#F20D18"/>
</svg>
