<svg width="460" height="1783" viewBox="0 0 460 1783" fill="none" xmlns="http://www.w3.org/2000/svg">
<path d="M456.263 4.13107L418.762 58.6376L412.689 208.145L397.62 414.661L447.763 594.131" stroke="#AC49CA"/>
<line x1="419.582" y1="58.6651" x2="455.582" y2="44.6651" stroke="#AC49CA"/>
<line x1="420.096" y1="58.7574" x2="456.096" y2="90.7574" stroke="#AC49CA"/>
<line x1="413.201" y1="204.89" x2="456.201" y2="282.89" stroke="#AC49CA"/>
<line x1="414.143" y1="204.806" x2="456.143" y2="253.806" stroke="#AC49CA"/>
<path d="M413.263 204.631L455.938 223.662" stroke="#AC49CA"/>
<path d="M412.764 204.131L455.763 207.662" stroke="#AC49CA"/>
<path d="M190.764 286.131L457.263 188.131" stroke="#AC49CA"/>
<line x1="191.261" y1="286.083" x2="202.261" y2="401.083" stroke="#AC49CA"/>
<path d="M202.763 401.131L158.763 370.115" stroke="#AC49CA"/>
<path d="M159.263 370.631L190.733 285.802" stroke="#AC49CA"/>
<line x1="0.456593" y1="557.736" x2="202.457" y2="400.736" stroke="#AC49CA"/>
<path d="M0.381592 557.808L159.263 370.131" stroke="#AC49CA"/>
<line x1="0.776403" y1="557.658" x2="296.777" y2="565.631" stroke="#AC49CA"/>
<line x1="203.198" y1="400.884" x2="297.198" y2="565.884" stroke="#AC49CA"/>
<line x1="202.797" y1="400.632" x2="397.797" y2="413.632" stroke="#AC49CA"/>
<line x1="297.346" y1="565.856" x2="397.346" y2="413.856" stroke="#AC49CA"/>
<line x1="203.073" y1="401.738" x2="448.073" y2="594.738" stroke="#AC49CA"/>
<line x1="297.855" y1="565.64" x2="447.855" y2="593.64" stroke="#AC49CA"/>
<line x1="1.10764" y1="557.768" x2="237.108" y2="781.768" stroke="#AC49CA"/>
<line x1="297.245" y1="565.264" x2="237.245" y2="782.264" stroke="#AC49CA"/>
<line x1="397.566" y1="413.672" x2="455.566" y2="388.672" stroke="#AC49CA"/>
<line x1="191.026" y1="285.706" x2="398.026" y2="413.706" stroke="#AC49CA"/>
<line x1="298.087" y1="565.75" x2="456.087" y2="699.75" stroke="#AC49CA"/>
<line x1="236.718" y1="781.633" x2="456.718" y2="761.633" stroke="#AC49CA"/>
<line x1="456.341" y1="678.398" x2="444.341" y2="659.398" stroke="#AC49CA"/>
<line x1="456.041" y1="651.547" x2="444.041" y2="659.547" stroke="#AC49CA"/>
<line x1="444.223" y1="659.327" x2="349.223" y2="882.327" stroke="#AC49CA"/>
<line x1="348.594" y1="881.661" x2="456.594" y2="842.661" stroke="#AC49CA"/>
<line x1="349.261" y1="882.08" x2="368.261" y2="1067.08" stroke="#AC49CA"/>
<line x1="367.864" y1="1066.64" x2="455.864" y2="1084.64" stroke="#AC49CA"/>
<line x1="349.146" y1="881.809" x2="456.146" y2="1008.81" stroke="#AC49CA"/>
<path d="M368.187 1067.4L272.763 1240.13L223.187 1298.4" stroke="#AC49CA"/>
<line x1="272.53" y1="1240.69" x2="456.53" y2="1143.69" stroke="#AC49CA"/>
<line x1="271.755" y1="1240.63" x2="456.756" y2="1237.65" stroke="#AC49CA"/>
<line x1="272.253" y1="1240.23" x2="251.253" y2="1339.23" stroke="#AC49CA"/>
<line x1="272.168" y1="1240.84" x2="411.168" y2="1432.84" stroke="#AC49CA"/>
<line x1="410.763" y1="1432.63" x2="455.763" y2="1432.63" stroke="#AC49CA"/>
<line x1="456.23" y1="1316.31" x2="411.23" y2="1433.31" stroke="#AC49CA"/>
<line x1="223.176" y1="1297.85" x2="251.176" y2="1338.85" stroke="#AC49CA"/>
<line x1="251.017" y1="1338.7" x2="411.017" y2="1432.7" stroke="#AC49CA"/>
<line x1="411.067" y1="1433.53" x2="289.067" y2="1526.53" stroke="#AC49CA"/>
<line x1="251.253" y1="1339.03" x2="289.253" y2="1526.03" stroke="#AC49CA"/>
<line x1="251.196" y1="1338.88" x2="338.196" y2="1488.88" stroke="#AC49CA"/>
<line x1="41.6411" y1="1392.65" x2="251.641" y2="1339.65" stroke="#AC49CA"/>
<line x1="40.5331" y1="1392.69" x2="223.533" y2="1297.69" stroke="#AC49CA"/>
<line x1="41.0011" y1="1392.69" x2="289.001" y2="1526.69" stroke="#AC49CA"/>
<line x1="184.347" y1="1683.85" x2="289.347" y2="1525.85" stroke="#AC49CA"/>
<line x1="290.059" y1="1525.73" x2="410.059" y2="1613.73" stroke="#AC49CA"/>
<line x1="338.197" y1="1488.88" x2="410.197" y2="1613.88" stroke="#AC49CA"/>
<line x1="411.263" y1="1433.13" x2="410.258" y2="1614.13" stroke="#AC49CA"/>
<line x1="410.342" y1="1613.86" x2="456.342" y2="1541.86" stroke="#AC49CA"/>
<line x1="410.017" y1="1613.7" x2="456.017" y2="1640.7" stroke="#AC49CA"/>
<line x1="289.201" y1="1525.89" x2="430.201" y2="1781.89" stroke="#AC49CA"/>
<line x1="429.547" y1="1781.68" x2="456.547" y2="1768.68" stroke="#AC49CA"/>
<line x1="183.948" y1="1683.67" x2="429.948" y2="1781.67" stroke="#AC49CA"/>
<line x1="41.2122" y1="1392.91" x2="184.212" y2="1683.91" stroke="#AC49CA"/>
<line x1="410.26" y1="1613.07" x2="431.378" y2="1780.93" stroke="#AC49CA"/>
<path d="M456.263 3.84713L456.263 1769.13" stroke="#AC49CA"/>
</svg>
