<svg width="323" height="1190" viewBox="0 0 323 1190" fill="none" xmlns="http://www.w3.org/2000/svg">
<path d="M0.618195 14.0001L66.1182 82.5001" stroke="#B03BCA"/>
<line x1="0.477911" y1="101.52" x2="65.4779" y2="82.5202" stroke="#B03BCA"/>
<path d="M0.618195 69.0001L66.1182 82.5001" stroke="#B03BCA"/>
<line x1="18.1635" y1="186.792" x2="66.1635" y2="81.7922" stroke="#B03BCA"/>
<path d="M18.3441 186.582L94.1182 136" stroke="#B03BCA"/>
<line x1="18.6255" y1="186.5" x2="86.6255" y2="187.5" stroke="#B03BCA"/>
<line x1="18.8581" y1="186.561" x2="82.8581" y2="221.561" stroke="#B03BCA"/>
<line x1="18.8418" y1="186.447" x2="0.841801" y2="195.447" stroke="#B03BCA"/>
<path d="M18.3109 186.395L0.618195 173" stroke="#B03BCA"/>
<line x1="82.123" y1="221.931" x2="94.123" y2="135.931" stroke="#B03BCA"/>
<line x1="82.4451" y1="221.531" x2="166.445" y2="190.531" stroke="#B03BCA"/>
<path d="M94.1182 136L166.922 190.603" stroke="#B03BCA"/>
<line x1="94.6962" y1="135.506" x2="208.696" y2="153.506" stroke="#B03BCA"/>
<line x1="194.145" y1="194.839" x2="208.145" y2="153.839" stroke="#B03BCA"/>
<line x1="166.288" y1="190.625" x2="208.288" y2="153.625" stroke="#B03BCA"/>
<path d="M94.2194 135.699L153.118 57.0001" stroke="#B03BCA"/>
<line x1="94.1743" y1="136.23" x2="66.1743" y2="82.2303" stroke="#B03BCA"/>
<line x1="153.761" y1="56.4792" x2="66.7614" y2="82.4792" stroke="#B03BCA"/>
<path d="M153.118 56.5001L208.618 153.5" stroke="#B03BCA"/>
<line x1="166.689" y1="190.505" x2="194.689" y2="194.505" stroke="#B03BCA"/>
<line x1="81.9318" y1="221.611" x2="194.932" y2="312.611" stroke="#B03BCA"/>
<line x1="194.118" y1="193.996" x2="195.118" y2="312.996" stroke="#B03BCA"/>
<path d="M36.6182 319L0.618195 281" stroke="#B03BCA"/>
<path d="M36.6182 319L61.1646 264.79" stroke="#B03BCA"/>
<line x1="1.79032" y1="243.531" x2="61.7903" y2="265.531" stroke="#B03BCA"/>
<path d="M82.1182 221.5L61.0751 265.203" stroke="#B03BCA"/>
<path d="M61.7847 265.529L166.618 306" stroke="#B03BCA"/>
<path d="M195.618 313L36.1182 319" stroke="#B03BCA"/>
<line x1="82.6182" y1="221.5" x2="1.61823" y2="221.5" stroke="#B03BCA"/>
<line x1="86.6372" y1="187.5" x2="165.637" y2="190.5" stroke="#B03BCA"/>
<line x1="153.446" y1="56.4697" x2="0.446375" y2="0.469661" stroke="#B03BCA"/>
<line x1="167.106" y1="190.888" x2="195.106" y2="312.888" stroke="#B03BCA"/>
<path d="M95.1181 374.5L166.118 306" stroke="#B03BCA"/>
<path d="M95.3595 374.428L2.11822 319" stroke="#B03BCA"/>
<path d="M0.738796 318.968L36.6188 319" stroke="#B03BCA"/>
<path d="M95.1164 374.046L87.1182 471" stroke="#B03BCA"/>
<path d="M0.618024 468L87.6179 470.5" stroke="#B03BCA"/>
<line x1="87.1831" y1="471.246" x2="1.18305" y2="319.246" stroke="#B03BCA"/>
<path d="M141.63 409.461L0.618232 483" stroke="#B03BCA"/>
<line x1="0.819926" y1="524.543" x2="127.82" y2="580.543" stroke="#B03BCA"/>
<path d="M5.61819 568L87.2349 470.679" stroke="#B03BCA"/>
<path d="M0.618195 561.5L28.0151 597.696" stroke="#B03BCA"/>
<path d="M0.618405 607L27.6184 597.5" stroke="#B03BCA"/>
<line x1="27.5344" y1="597.507" x2="127.534" y2="580.507" stroke="#B03BCA"/>
<line x1="28.0662" y1="597.778" x2="87.0662" y2="716.778" stroke="#B03BCA"/>
<path d="M140.618 408.5L322.118 506.5" stroke="#B03BCA"/>
<line x1="141.117" y1="409.038" x2="128.117" y2="581.038" stroke="#B03BCA"/>
<path d="M128.438 580.534L322.118 506.5" stroke="#B03BCA"/>
<path d="M322.118 506L213.038 673.272" stroke="#B03BCA"/>
<line x1="322.075" y1="506.204" x2="244.075" y2="681.204" stroke="#B03BCA"/>
<path d="M128.618 581L213.618 672.5" stroke="#B03BCA"/>
<path d="M128.118 580.5L111.093 634.158" stroke="#B03BCA"/>
<path d="M87.1181 716.5L111.14 633.856" stroke="#B03BCA"/>
<line x1="27.8152" y1="597.541" x2="111.815" y2="633.541" stroke="#B03BCA"/>
<line x1="111.798" y1="633.534" x2="212.798" y2="672.534" stroke="#B03BCA"/>
<path d="M213.101 672.872L234.618 753" stroke="#B03BCA"/>
<path d="M235.118 753L87.1182 716.5" stroke="#B03BCA"/>
<path d="M86.4532 716.528L213.118 672.5" stroke="#B03BCA"/>
<path d="M212.743 672.516L244.118 680.5" stroke="#B03BCA"/>
<path d="M244.114 681.068L234.618 753" stroke="#B03BCA"/>
<path d="M234.618 753L102.118 870.5" stroke="#B03BCA"/>
<path d="M86.618 716L102.118 870" stroke="#B03BCA"/>
<line x1="17.9759" y1="783.651" x2="101.976" y2="869.651" stroke="#B03BCA"/>
<path d="M17.2701 783.641L87.1182 716" stroke="#B03BCA"/>
<path d="M17.6182 783L27.6182 598" stroke="#B03BCA"/>
<path d="M17.1184 783L0.618195 765.5" stroke="#B03BCA"/>
<path d="M17.6179 783.5L0.618194 795.5" stroke="#B03BCA"/>
<path d="M17.5147 783.489L0.618195 780" stroke="#B03BCA"/>
<path d="M102.4 870.5H1.11839" stroke="#B03BCA"/>
<path d="M0.618195 1188.5L39.6182 1162.5" stroke="#B03BCA"/>
<path d="M74.0792 1081.19L39.6182 1162.5" stroke="#B03BCA"/>
<line x1="73.4454" y1="1081.53" x2="149.445" y2="1053.53" stroke="#B03BCA"/>
<path d="M40.1182 1162.5L0.385442 1141.44" stroke="#B03BCA"/>
<line x1="39.1251" y1="1162.08" x2="12.1251" y2="1001.08" stroke="#B03BCA"/>
<line x1="12.0152" y1="1000.7" x2="74.0152" y2="1081.7" stroke="#B03BCA"/>
<line x1="11.7975" y1="1000.53" x2="149.797" y2="1053.53" stroke="#B03BCA"/>
<path d="M149.618 1053.5L1.11822 901.5" stroke="#B03BCA"/>
<path d="M12.1368 1001.14L0.61821 961" stroke="#B03BCA"/>
<path d="M11.9306 1001.39L0.618195 1011" stroke="#B03BCA"/>
<path d="M12.356 1001.43L0.618195 994" stroke="#B03BCA"/>
<path d="M0.617218 1189L0.617218 0" stroke="#B03BCA"/>
</svg>
